<?xml version="1.0" standalone="no"?>
<!DOCTYPE svg PUBLIC "-//W3C//DTD SVG 20010904//EN"
 "http://www.w3.org/TR/2001/REC-SVG-20010904/DTD/svg10.dtd">
<svg version="1.0" xmlns="http://www.w3.org/2000/svg"
 width="1024.000000pt" height="1024.000000pt" viewBox="0 0 1024.000000 1024.000000"
 preserveAspectRatio="xMidYMid meet">
<metadata>
Created by potrace 1.14, written by Peter Selinger 2001-2017
</metadata>
<g transform="translate(0.000000,1024.000000) scale(0.100000,-0.100000)"
fill="#000000" stroke="none">
<path d="M482 9228 l3 -1013 4595 0 4595 0 1 1013 1 1012 -4599 0 -4598 0 2
-1012z"/>
<path d="M514 6158 c-3 -4 -11 -5 -19 -1 -13 4 -15 -119 -13 -1008 l3 -1014
2770 -1 c1524 0 2775 1 2781 3 8 3 11 273 10 1010 l-1 1006 -23 8 c-16 6 -21
5 -16 -2 5 -8 2 -9 -11 -2 -10 6 -32 7 -49 3 -17 -4 -40 -4 -51 0 -11 4 -29 4
-40 0 -11 -4 -29 -4 -40 0 -11 4 -33 4 -50 0 -17 -4 -41 -3 -53 1 -12 5 -24 4
-27 -2 -4 -5 -11 -7 -16 -3 -9 5 -92 8 -111 4 -20 -4 -77 -3 -91 3 -9 3 -19 2
-22 -4 -4 -5 -11 -6 -17 -3 -8 5 -90 8 -110 4 -21 -4 -77 -3 -91 3 -9 3 -19 2
-22 -3 -3 -5 -15 -6 -28 -1 -12 5 -31 5 -42 1 -11 -4 -29 -4 -41 0 -11 5 -27
4 -35 0 -8 -5 -21 -5 -28 -1 -7 5 -27 5 -45 1 -17 -4 -40 -4 -51 0 -11 4 -29
4 -40 0 -11 -4 -29 -4 -40 0 -11 4 -33 4 -50 0 -17 -4 -41 -3 -53 1 -12 5 -24
4 -27 -2 -4 -5 -11 -7 -16 -3 -9 5 -92 8 -111 4 -20 -4 -77 -3 -91 3 -9 3 -19
2 -22 -4 -4 -5 -11 -6 -17 -3 -8 5 -90 8 -110 4 -21 -4 -77 -3 -91 3 -9 3 -19
2 -22 -3 -3 -5 -15 -6 -28 -1 -12 5 -31 5 -42 1 -11 -4 -29 -4 -41 0 -11 5
-27 4 -35 0 -8 -5 -21 -5 -28 -1 -7 5 -27 5 -45 1 -17 -4 -40 -4 -51 0 -11 4
-29 4 -40 0 -11 -4 -29 -4 -40 0 -11 4 -29 4 -40 0 -11 -4 -29 -4 -40 0 -11 4
-27 4 -36 -1 -8 -4 -21 -4 -28 0 -7 5 -27 5 -45 1 -17 -4 -40 -4 -51 0 -11 4
-29 4 -40 0 -11 -4 -29 -4 -40 0 -11 4 -33 4 -50 0 -17 -4 -41 -3 -53 1 -12 5
-24 4 -27 -2 -4 -5 -11 -7 -16 -3 -9 5 -92 8 -111 4 -20 -4 -77 -3 -91 3 -9 3
-19 2 -22 -4 -4 -5 -11 -6 -17 -3 -8 5 -90 8 -110 4 -21 -4 -77 -3 -91 3 -9 3
-19 2 -22 -3 -3 -5 -15 -6 -28 -1 -12 5 -31 5 -42 1 -11 -4 -29 -4 -41 0 -11
5 -27 4 -35 0 -8 -5 -21 -5 -28 -1 -7 5 -27 5 -45 1 -17 -4 -40 -4 -51 0 -11
4 -29 4 -40 0 -11 -4 -29 -4 -40 0 -11 4 -29 4 -40 0 -11 -4 -29 -4 -40 0 -11
4 -27 4 -36 -1 -8 -4 -21 -4 -28 0 -7 5 -27 5 -45 1 -17 -4 -40 -4 -51 0 -11
4 -29 4 -40 0 -11 -4 -29 -4 -40 0 -11 4 -33 4 -50 0 -17 -4 -41 -3 -53 1 -12
5 -24 4 -27 -2 -4 -5 -11 -7 -16 -3 -9 5 -92 8 -111 4 -20 -4 -77 -3 -91 3 -9
3 -19 2 -22 -4 -4 -5 -11 -6 -17 -3 -8 5 -90 8 -110 4 -21 -4 -77 -3 -91 3 -9
3 -19 2 -22 -3 -3 -5 -15 -6 -28 -1 -12 5 -31 5 -42 1 -11 -4 -29 -4 -41 0
-11 5 -27 4 -35 0 -8 -5 -21 -5 -28 -1 -7 5 -27 5 -45 1 -17 -4 -40 -4 -51 0
-11 4 -29 4 -40 0 -11 -4 -29 -4 -40 0 -11 4 -29 4 -40 0 -11 -4 -29 -4 -40 0
-11 4 -27 4 -36 -1 -8 -4 -21 -4 -28 0 -7 5 -27 5 -45 1 -17 -4 -40 -4 -51 0
-11 4 -29 4 -40 0 -11 -4 -29 -4 -40 0 -11 4 -33 4 -50 0 -17 -4 -41 -3 -53 1
-12 5 -24 4 -27 -2 -4 -5 -11 -7 -16 -3 -9 5 -92 8 -111 4 -20 -4 -77 -3 -91
3 -9 3 -19 2 -22 -4 -4 -5 -11 -7 -16 -3 -15 9 -110 10 -115 2z"/>
<path d="M7714 6159 c-2 -4 -17 -5 -33 -3 l-29 3 2 -1012 1 -1012 1010 0 1010
0 1 1010 1 1010 -26 6 c-14 3 -37 2 -51 -2 -14 -3 -35 -3 -47 2 -13 5 -25 4
-28 -2 -4 -5 -11 -7 -16 -3 -9 5 -92 8 -111 4 -20 -4 -77 -3 -91 3 -9 3 -19 2
-22 -4 -4 -5 -11 -6 -17 -3 -8 5 -90 8 -110 4 -21 -4 -77 -3 -91 3 -9 3 -19 2
-22 -4 -4 -5 -11 -7 -16 -3 -9 5 -92 8 -111 4 -20 -4 -77 -3 -91 3 -9 3 -19 2
-22 -4 -4 -5 -11 -6 -17 -3 -12 8 -106 9 -114 2 -3 -3 -21 -2 -40 2 -18 4 -34
5 -34 1 0 -8 -85 -5 -99 3 -5 4 -12 2 -16 -4 -4 -6 -11 -7 -17 -4 -12 8 -106
9 -114 2 -3 -3 -20 -2 -39 2 -19 4 -36 5 -39 2 -8 -7 -69 -7 -89 1 -9 3 -19 2
-22 -4 -4 -5 -11 -6 -17 -3 -12 8 -106 9 -114 2 -3 -3 -21 -2 -40 2 -18 4 -34
5 -34 1 0 -8 -85 -5 -99 3 -5 4 -12 2 -16 -4 -4 -6 -11 -8 -16 -4 -14 8 -110
11 -115 3z"/>
<path d="M498 2082 c-17 -3 -18 -60 -18 -1015 l0 -1012 4598 0 4597 0 1 1010
c1 876 -1 1011 -14 1016 -8 3 -36 2 -63 -1 -27 -4 -49 -4 -49 -1 0 3 -11 6
-25 6 -14 0 -25 -4 -25 -8 0 -4 -9 -3 -19 3 -13 6 -22 7 -26 0 -4 -6 -15 -6
-30 0 -16 6 -25 6 -25 0 0 -6 -9 -6 -24 0 -15 5 -27 5 -34 -2 -6 -6 -12 -6
-16 0 -3 5 -25 6 -51 2 -25 -4 -45 -4 -45 -1 0 3 -11 6 -25 6 -14 0 -25 -4
-25 -8 0 -4 -9 -3 -19 3 -13 6 -22 7 -26 0 -4 -6 -15 -6 -30 0 -16 6 -25 6
-25 0 0 -6 -9 -6 -24 0 -15 5 -27 5 -34 -2 -6 -6 -12 -6 -16 0 -3 6 -20 7 -41
2 -20 -4 -38 -4 -41 1 -3 5 -13 5 -24 -1 -13 -7 -21 -7 -25 0 -4 7 -13 7 -24
0 -12 -6 -22 -5 -28 1 -8 8 -13 7 -17 0 -5 -8 -13 -8 -27 -1 -13 8 -19 7 -19
0 0 -7 -6 -8 -19 0 -14 7 -22 7 -26 0 -4 -6 -11 -7 -18 -3 -14 8 -58 9 -80 0
-9 -3 -17 -2 -17 4 0 6 -7 6 -20 -1 -14 -8 -20 -8 -20 0 0 8 -6 8 -20 0 -14
-8 -20 -8 -20 0 0 6 -5 8 -11 5 -17 -11 -59 -13 -65 -4 -3 5 -14 5 -24 -1 -13
-7 -21 -7 -25 0 -4 7 -13 7 -26 0 -13 -8 -19 -7 -19 0 0 7 -6 8 -18 1 -11 -6
-24 -6 -34 0 -11 6 -19 6 -23 -1 -4 -7 -12 -7 -25 0 -13 7 -21 7 -25 0 -4 -6
-12 -7 -18 -3 -16 10 -48 10 -69 0 -11 -5 -18 -4 -18 3 0 8 -6 8 -20 0 -14 -8
-20 -8 -20 0 0 8 -6 8 -20 0 -14 -8 -20 -8 -20 0 0 6 -5 8 -11 5 -17 -11 -59
-13 -65 -4 -3 5 -14 5 -24 -1 -13 -7 -21 -7 -25 0 -4 7 -13 7 -24 0 -12 -6
-22 -5 -28 1 -8 8 -13 7 -17 0 -5 -8 -13 -8 -27 -1 -13 8 -19 7 -19 0 0 -7 -6
-8 -19 0 -14 7 -22 7 -26 0 -4 -6 -11 -7 -18 -3 -14 8 -58 9 -80 0 -9 -3 -17
-2 -17 4 0 6 -7 6 -20 -1 -14 -8 -20 -8 -20 0 0 8 -6 8 -20 0 -14 -8 -20 -8
-20 0 0 6 -5 8 -11 5 -17 -11 -59 -13 -65 -4 -3 5 -14 5 -24 -1 -13 -7 -21 -7
-25 0 -4 7 -13 7 -26 0 -13 -8 -19 -7 -19 0 0 7 -6 8 -18 1 -11 -6 -24 -6 -34
0 -11 6 -19 6 -23 -1 -4 -7 -12 -7 -25 0 -13 7 -21 7 -25 0 -4 -6 -12 -7 -18
-3 -16 10 -48 10 -69 0 -11 -5 -18 -4 -18 3 0 8 -6 8 -20 0 -14 -8 -20 -8 -20
0 0 8 -6 8 -20 0 -14 -8 -20 -8 -20 0 0 8 -6 8 -20 0 -14 -8 -20 -8 -20 0 0 8
-6 8 -20 0 -14 -8 -20 -8 -20 0 0 8 -6 8 -20 0 -14 -8 -20 -8 -20 0 0 8 -6 8
-20 0 -14 -8 -20 -8 -20 0 0 6 -5 8 -11 5 -17 -11 -59 -13 -65 -4 -3 5 -14 5
-24 -1 -13 -7 -21 -7 -25 0 -4 7 -13 7 -26 0 -13 -8 -19 -7 -19 0 0 7 -6 8
-18 1 -11 -6 -24 -6 -34 0 -11 6 -19 6 -23 -1 -4 -7 -12 -7 -25 0 -13 7 -21 7
-25 0 -4 -6 -12 -7 -18 -3 -16 10 -48 10 -69 0 -11 -5 -18 -4 -18 3 0 8 -6 8
-20 0 -14 -8 -20 -8 -20 0 0 8 -6 8 -20 0 -14 -8 -20 -8 -20 0 0 8 -6 8 -20 0
-14 -8 -20 -8 -20 0 0 8 -6 8 -20 0 -14 -8 -20 -8 -20 0 0 8 -6 8 -20 0 -14
-8 -20 -8 -20 0 0 8 -6 8 -20 0 -14 -8 -20 -8 -20 0 0 6 -5 8 -11 5 -17 -11
-59 -13 -65 -4 -3 5 -14 5 -24 -1 -13 -7 -21 -7 -25 0 -4 7 -13 7 -26 0 -13
-8 -19 -7 -19 0 0 7 -6 8 -18 1 -11 -6 -24 -6 -34 0 -11 6 -19 6 -23 -1 -4 -7
-12 -7 -25 0 -13 7 -21 7 -25 0 -4 -6 -12 -7 -18 -3 -16 10 -48 10 -69 0 -11
-5 -18 -4 -18 3 0 8 -6 8 -20 0 -14 -8 -20 -8 -20 0 0 8 -6 8 -20 0 -14 -8
-20 -8 -20 0 0 8 -6 8 -20 0 -14 -8 -20 -8 -20 0 0 8 -6 8 -20 0 -14 -8 -20
-8 -20 0 0 8 -6 8 -20 0 -14 -8 -20 -8 -20 0 0 8 -6 8 -20 0 -14 -8 -20 -8
-20 0 0 6 -5 8 -11 5 -17 -11 -59 -13 -65 -4 -3 5 -14 5 -24 -1 -13 -7 -21 -7
-25 0 -4 7 -13 7 -26 0 -13 -8 -19 -7 -19 0 0 7 -6 8 -18 1 -11 -6 -24 -6 -34
0 -11 6 -19 6 -23 -1 -4 -7 -12 -7 -25 0 -13 7 -21 7 -25 0 -4 -6 -12 -7 -18
-3 -16 10 -48 10 -69 0 -11 -5 -18 -4 -18 3 0 8 -6 8 -20 0 -14 -8 -20 -8 -20
0 0 8 -6 8 -20 0 -14 -8 -20 -8 -20 0 0 6 -5 8 -11 5 -17 -11 -59 -13 -65 -4
-3 5 -14 5 -24 -1 -13 -7 -21 -7 -25 0 -4 7 -13 7 -24 0 -12 -6 -22 -5 -28 1
-8 8 -13 7 -17 0 -5 -8 -13 -8 -27 -1 -13 8 -19 7 -19 0 0 -7 -6 -8 -19 0 -14
7 -22 7 -26 0 -4 -6 -11 -7 -18 -3 -14 8 -58 9 -80 0 -9 -3 -17 -2 -17 4 0 6
-7 6 -20 -1 -14 -8 -20 -8 -20 0 0 8 -6 8 -20 0 -14 -8 -20 -8 -20 0 0 6 -5 8
-11 5 -17 -11 -59 -13 -65 -4 -3 5 -14 5 -24 -1 -13 -7 -21 -7 -25 0 -4 7 -13
7 -26 0 -13 -8 -19 -7 -19 0 0 7 -6 8 -18 1 -11 -6 -24 -6 -34 0 -11 6 -19 6
-23 -1 -4 -7 -12 -7 -25 0 -13 7 -21 7 -25 0 -4 -6 -12 -7 -18 -3 -16 10 -48
10 -70 0 -10 -5 -17 -4 -17 3 0 8 -6 8 -20 0 -14 -8 -20 -8 -20 0 0 8 -6 8
-20 0 -14 -8 -20 -8 -20 0 0 6 -5 8 -11 5 -17 -11 -59 -13 -65 -4 -3 5 -14 5
-24 -1 -13 -7 -21 -7 -25 0 -4 7 -13 7 -24 0 -12 -6 -22 -5 -28 1 -8 8 -13 7
-17 0 -5 -8 -13 -8 -27 -1 -13 8 -19 7 -19 0 0 -7 -6 -8 -18 -1 -13 7 -22 7
-29 0 -6 -6 -13 -7 -16 -2 -3 5 -29 7 -57 3 -27 -4 -50 -4 -50 -1 0 3 -11 6
-25 6 -14 0 -25 -4 -25 -8 0 -4 -9 -3 -19 3 -13 6 -22 7 -26 0 -4 -6 -15 -6
-30 0 -16 6 -25 6 -25 0 0 -6 -9 -6 -24 0 -15 5 -27 5 -34 -2 -6 -6 -12 -6
-16 0 -3 5 -25 6 -51 2 -25 -4 -45 -4 -45 -1 0 3 -11 6 -25 6 -14 0 -25 -4
-25 -8 0 -4 -9 -3 -19 3 -13 6 -22 7 -26 0 -4 -6 -15 -6 -30 0 -16 6 -25 6
-25 0 0 -6 -9 -6 -24 0 -15 5 -27 5 -34 -2 -6 -6 -12 -6 -16 0 -3 6 -20 7 -41
2 -20 -4 -38 -4 -41 1 -3 5 -13 5 -24 -1 -13 -7 -21 -7 -25 0 -4 7 -13 7 -24
0 -12 -6 -22 -5 -28 1 -8 8 -13 7 -17 0 -5 -8 -13 -8 -27 -1 -13 8 -19 7 -19
0 0 -7 -6 -8 -19 0 -14 7 -22 7 -26 0 -4 -6 -11 -7 -18 -3 -14 8 -58 9 -80 0
-9 -3 -17 -2 -17 4 0 6 -7 6 -20 -1 -14 -8 -20 -8 -20 0 0 8 -6 8 -20 0 -14
-8 -20 -8 -20 0 0 6 -5 8 -11 5 -17 -11 -59 -13 -65 -4 -3 5 -14 5 -24 -1 -13
-7 -21 -7 -25 0 -4 7 -13 7 -26 0 -13 -8 -19 -7 -19 0 0 7 -6 8 -18 1 -11 -6
-24 -6 -34 0 -11 6 -19 6 -23 -1 -4 -7 -12 -7 -25 0 -13 7 -21 7 -25 0 -4 -6
-12 -7 -18 -3 -16 10 -48 10 -69 0 -11 -5 -18 -4 -18 3 0 8 -6 8 -20 0 -14 -8
-20 -8 -20 0 0 8 -6 8 -20 0 -14 -8 -20 -8 -20 0 0 6 -5 8 -11 5 -17 -11 -59
-13 -65 -4 -3 5 -14 5 -24 -1 -13 -7 -21 -7 -25 0 -4 7 -13 7 -24 0 -12 -6
-22 -5 -28 1 -8 8 -13 7 -17 0 -5 -8 -13 -8 -27 -1 -13 8 -19 7 -19 0 0 -7 -6
-8 -18 -1 -13 7 -22 7 -29 0 -6 -6 -13 -7 -16 -2 -3 5 -29 7 -57 3 -27 -4 -50
-4 -50 -1 0 3 -11 6 -25 6 -14 0 -25 -4 -25 -8 0 -4 -9 -3 -19 3 -13 6 -22 7
-26 0 -4 -6 -15 -6 -30 0 -16 6 -25 6 -25 0 0 -6 -9 -6 -24 0 -15 5 -27 5 -34
-2 -6 -6 -12 -6 -16 0 -3 5 -25 6 -51 2 -25 -4 -45 -4 -45 -1 0 3 -11 6 -25 6
-14 0 -25 -4 -25 -8 0 -4 -9 -3 -19 3 -13 6 -22 7 -26 0 -4 -6 -15 -6 -30 0
-16 6 -25 6 -25 0 0 -6 -9 -6 -24 0 -15 5 -27 5 -34 -2 -6 -6 -12 -6 -16 0 -3
6 -20 7 -41 2 -20 -4 -38 -4 -41 1 -3 5 -13 5 -24 -1 -13 -7 -21 -7 -25 0 -4
7 -13 7 -24 0 -12 -6 -22 -5 -28 1 -8 8 -13 7 -17 0 -5 -8 -13 -8 -27 -1 -13
8 -19 7 -19 0 0 -7 -6 -8 -19 0 -14 7 -22 7 -26 0 -4 -6 -11 -7 -18 -3 -14 8
-58 9 -80 0 -9 -3 -17 -2 -17 4 0 6 -7 6 -20 -1 -14 -8 -20 -8 -20 0 0 8 -6 8
-20 0 -14 -8 -20 -8 -20 0 0 6 -5 8 -11 5 -17 -11 -59 -13 -65 -4 -3 5 -14 5
-24 -1 -13 -7 -21 -7 -25 0 -4 7 -13 7 -26 0 -13 -8 -19 -7 -19 0 0 7 -6 8
-18 1 -11 -6 -24 -6 -34 0 -11 6 -19 6 -23 -1 -4 -7 -12 -7 -25 0 -13 7 -21 7
-25 0 -4 -7 -12 -7 -18 -2 -7 5 -20 7 -29 4z"/>
</g>
</svg>
