<svg width="180" height="23" viewBox="0 0 180 23" fill="none" xmlns="http://www.w3.org/2000/svg">
<g id="&#208;&#187;&#208;&#190;&#208;&#179;&#208;&#190;">
<path id="Fill 1" fill-rule="evenodd" clip-rule="evenodd" d="M4.9043 17.3175H10.7104V7.25293H6.1578C6.09217 9.09487 6.00412 11.4192 5.85011 13.3706C5.7182 14.9712 5.45404 16.3088 4.9043 17.3175ZM3.10126 22.9749H0V17.3175H0.989675C2.00144 16.901 2.4417 15.4976 2.68343 13.1733C2.88097 10.805 2.94758 7.77935 2.94758 4.44629H14.2518V17.3175H16.1649V22.9749H13.064L12.9538 20.1242H3.21141L3.10126 22.9749Z" fill="white"/>
<path id="Fill 4" fill-rule="evenodd" clip-rule="evenodd" d="M41.9741 17.6679C43.7338 17.6679 44.5256 16.8784 44.5256 15.4534V15.3656C44.5256 13.9182 43.7338 13.1729 41.7983 13.1729H39.5327V17.6679H41.9741ZM41.6664 10.8926C43.3816 10.8926 44.0636 10.2784 44.0636 8.87505V8.78759C44.0636 7.47173 43.316 6.87988 41.6443 6.87988H39.5327V10.8926H41.6664ZM36.0581 4.44629H42.2379C45.6689 4.44629 47.4501 5.84961 47.4501 8.52474V8.6122C47.4501 10.2572 46.6586 11.4629 44.8992 11.9673C46.9445 12.3842 48.0444 13.5459 48.0444 15.6509V15.7386C48.0444 18.611 46.1527 20.1242 42.5238 20.1242H36.0581V4.44629Z" fill="white"/>
<path id="Fill 6" fill-rule="evenodd" clip-rule="evenodd" d="M56.6043 7.14355C54.9106 7.14355 53.9209 7.73572 53.9209 9.35803V9.44582C53.9209 10.981 54.8446 11.7481 56.6261 11.7481H58.5177V7.14355H56.6043ZM53.1294 20.1245H49.3247L53.7009 13.5021C51.8096 13.0638 50.4463 11.7263 50.4463 9.33622V9.24875C50.4463 5.9374 52.9094 4.44629 56.5163 4.44629H62.0582V20.1245H58.5177V14.1604H56.912L53.1294 20.1245Z" fill="white"/>
<path id="Fill 8" fill-rule="evenodd" clip-rule="evenodd" d="M68.605 7.20888H64.3604V4.44629H76.4343V7.20888H72.1894V20.1242H68.605V7.20888Z" fill="white"/>
<path id="Fill 10" fill-rule="evenodd" clip-rule="evenodd" d="M84.1823 17.4271C85.8539 17.4271 86.8215 16.7252 86.8215 15.0808V14.993C86.8215 13.4365 85.8975 12.625 84.1605 12.625H82.3569V17.4271H84.1823ZM78.8159 4.44629H82.3568V10.1253H84.3582C87.9209 10.1253 90.2524 11.7042 90.2524 14.9932V15.081C90.2524 18.3921 88.0749 20.1242 84.2481 20.1242H78.8159V4.44629Z" fill="white"/>
<path id="Fill 12" fill-rule="evenodd" clip-rule="evenodd" d="M99.5483 20.3659C98.7786 20.3659 98.3169 20.1245 98.3169 20.1245V17.2301C98.3169 17.2301 98.4927 17.3179 98.9323 17.3179C100.098 17.3179 100.626 16.0244 100.868 13.5682C101.088 11.1124 101.154 7.9546 101.154 4.44629H112.216V20.1245H108.653V7.25294H104.365C104.321 9.46774 104.233 12.0988 104.013 14.3356C103.661 17.866 102.627 20.3659 99.5483 20.3659Z" fill="white"/>
<path id="Fill 14" fill-rule="evenodd" clip-rule="evenodd" d="M115.663 20.1242V4.44629H119.226V15.4098L125.824 4.44629H129.386V20.1242H125.824V9.07285L119.226 20.1242H115.663Z" fill="white"/>
<path id="Fill 16" fill-rule="evenodd" clip-rule="evenodd" d="M132.593 4.44629H136.156V10.849H142.468V4.44629H146.031V20.1242H142.468V13.6557H136.156V20.1242H132.593V4.44629Z" fill="white"/>
<path id="Fill 18" fill-rule="evenodd" clip-rule="evenodd" d="M149.157 20.1242V4.44629H152.72V15.4098L159.318 4.44629H162.881V20.1242H159.318V9.07285L152.72 20.1242H149.157Z" fill="white"/>
<path id="Fill 20" fill-rule="evenodd" clip-rule="evenodd" d="M169.541 0.324219H171.806C171.872 1.02588 172.18 1.64008 172.905 1.64008C173.632 1.64008 173.984 1.04758 174.071 0.324219H176.315C176.183 2.25395 174.863 3.52543 172.905 3.52543C170.882 3.52543 169.651 2.25395 169.541 0.324219ZM166.088 20.1242V4.44629H169.651V15.4098L176.249 4.44629H179.811V20.1242H176.249V9.07285L169.651 20.1242H166.088Z" fill="white"/>
<path id="Fill 22" fill-rule="evenodd" clip-rule="evenodd" d="M18.7319 20.1251H32.9311V17.0078H18.7319V20.1251Z" fill="white"/>
<path id="Fill 24" fill-rule="evenodd" clip-rule="evenodd" d="M18.7319 7.5636H32.9311V4.44629H18.7319V7.5636Z" fill="white"/>
<path id="Fill 25" fill-rule="evenodd" clip-rule="evenodd" d="M18.7319 13.8442H27.3281V10.7266H18.7319V13.8442Z" fill="white"/>
<path id="Fill 26" fill-rule="evenodd" clip-rule="evenodd" d="M29.8843 13.8442H33.0112V10.7266H29.8843V13.8442Z" fill="#00D741"/>
</g>
</svg>
