<svg width="554" height="71" viewBox="0 0 554 71" fill="none" xmlns="http://www.w3.org/2000/svg">
<mask id="mask0_0_8325" style="mask-type:alpha" maskUnits="userSpaceOnUse" x="0" y="13" width="50" height="58">
<path fill-rule="evenodd" clip-rule="evenodd" d="M49.7513 70.9225H0V13.7259L49.7513 13.7259V70.9225Z" fill="white"/>
</mask>
<g mask="url(#mask0_0_8325)">
<path fill-rule="evenodd" clip-rule="evenodd" d="M15.0943 53.4589H32.9643V22.3899H18.9523C18.7503 28.0759 18.4793 35.2509 18.0053 41.2749C17.5993 46.2159 16.7863 50.3449 15.0943 53.4589ZM9.5443 70.9229H-0.000701904V53.4589H3.0453C6.1593 52.1729 7.5143 47.8409 8.2583 40.6659C8.8663 33.3549 9.0713 24.0149 9.0713 13.7259H43.8633V53.4589H49.7513V70.9229H40.2073L39.8683 62.1229H9.8833L9.5443 70.9229Z" fill="#00284B"/>
</g>
<path fill-rule="evenodd" clip-rule="evenodd" d="M129.186 54.5419C134.602 54.5419 137.039 52.1049 137.039 47.7059V47.4349C137.039 42.9669 134.602 40.6659 128.645 40.6659H121.672V54.5419H129.186ZM128.239 33.6259C133.518 33.6259 135.617 31.7299 135.617 27.3979V27.1279C135.617 23.0659 133.316 21.2389 128.171 21.2389H121.672V33.6259H128.239ZM110.978 13.7259H129.998C140.558 13.7259 146.04 18.0579 146.04 26.3159V26.5859C146.04 31.6639 143.604 35.3859 138.189 36.9429C144.484 38.2299 147.869 41.8159 147.869 48.3139V48.5849C147.869 57.4519 142.047 62.1229 130.878 62.1229H110.978V13.7259Z" fill="#00284B"/>
<path fill-rule="evenodd" clip-rule="evenodd" d="M174.214 22.0512C169.001 22.0512 165.955 23.8792 165.955 28.8872V29.1582C165.955 33.8972 168.798 36.2652 174.281 36.2652H180.103V22.0512H174.214ZM163.519 62.1232H151.809L165.278 41.6802C159.457 40.3272 155.261 36.1982 155.261 28.8202V28.5502C155.261 18.3282 162.842 13.7252 173.943 13.7252H191V62.1232H180.103V43.7122H175.161L163.519 62.1232Z" fill="#00284B"/>
<path fill-rule="evenodd" clip-rule="evenodd" d="M211.15 22.2539H198.086V13.7259H235.247V22.2539H222.182V62.1229H211.15V22.2539Z" fill="#00284B"/>
<path fill-rule="evenodd" clip-rule="evenodd" d="M259.093 53.7978C264.238 53.7978 267.216 51.6308 267.216 46.5548V46.2838C267.216 41.4788 264.372 38.9738 259.026 38.9738H253.475V53.7978H259.093ZM242.577 13.7258H253.475V31.2568H259.635C270.6 31.2568 277.776 36.1308 277.776 46.2838V46.5548C277.776 56.7758 271.074 62.1228 259.296 62.1228H242.577V13.7258Z" fill="#00284B"/>
<path fill-rule="evenodd" clip-rule="evenodd" d="M306.386 62.8681C304.017 62.8681 302.596 62.1231 302.596 62.1231V53.1881C302.596 53.1881 303.137 53.4591 304.49 53.4591C308.078 53.4591 309.703 49.4661 310.448 41.8841C311.124 34.3031 311.327 24.5551 311.327 13.7251H345.375V62.1231H334.409V22.3891H321.21C321.074 29.2261 320.804 37.3481 320.127 44.2531C319.044 55.1511 315.863 62.8681 306.386 62.8681" fill="#00284B"/>
<path fill-rule="evenodd" clip-rule="evenodd" d="M355.983 62.123V13.726H366.949V47.57L387.256 13.726H398.221V62.123H387.256V28.008L366.949 62.123H355.983Z" fill="#00284B"/>
<path fill-rule="evenodd" clip-rule="evenodd" d="M408.091 13.7255H419.056V33.4905H438.484V13.7255H449.448V62.1225H438.484V42.1545H419.056V62.1225H408.091V13.7255Z" fill="#00284B"/>
<path fill-rule="evenodd" clip-rule="evenodd" d="M459.073 62.123V13.726H470.038V47.57L490.345 13.726H501.311V62.123H490.345V28.008L470.038 62.123H459.073Z" fill="#00284B"/>
<path fill-rule="evenodd" clip-rule="evenodd" d="M521.808 1H528.78C528.982 3.166 529.93 5.062 532.163 5.062C534.398 5.062 535.481 3.233 535.751 1H542.656C542.249 6.957 538.188 10.882 532.163 10.882C525.936 10.882 522.146 6.957 521.808 1ZM511.18 62.123V13.726H522.146V47.57L542.453 13.726H553.418V62.123H542.453V28.008L522.146 62.123H511.18Z" fill="#00284B"/>
<mask id="mask1_0_8325" style="mask-type:alpha" maskUnits="userSpaceOnUse" x="0" y="0" width="554" height="71">
<path fill-rule="evenodd" clip-rule="evenodd" d="M0 70.9225H553.419V0.9995H0V70.9225Z" fill="white"/>
</mask>
<g mask="url(#mask1_0_8325)">
<path fill-rule="evenodd" clip-rule="evenodd" d="M57.652 62.1235H101.354V52.5005H57.652V62.1235Z" fill="#00284B"/>
<path fill-rule="evenodd" clip-rule="evenodd" d="M57.652 23.3485H101.354V13.7255H57.652V23.3485Z" fill="#00284B"/>
<path fill-rule="evenodd" clip-rule="evenodd" d="M57.652 42.7365H84.109V33.1125H57.652V42.7365Z" fill="#00284B"/>
<path fill-rule="evenodd" clip-rule="evenodd" d="M91.977 42.7365H101.601V33.1125H91.977V42.7365Z" fill="#00D741"/>
</g>
</svg>
