<svg width="519" height="139" viewBox="0 0 519 139" fill="none" xmlns="http://www.w3.org/2000/svg">
<path fill-rule="evenodd" clip-rule="evenodd" d="M20.05 78.2002C20.05 83.1502 16.45 86.3002 10.15 86.3002C2.8 86.3002 -6.35 82.8502 -12.35 75.2002L-26 91.5502C-20.9 102.8 -4.55 108.8 9.55 108.8C29.8 108.8 45.55 96.2002 45.55 77.9002C45.55 43.7002 1.75 47.9002 1.75 30.5002C1.75 25.7002 5.65 22.7002 12.25 22.7002C20.05 22.7002 23.5 25.4002 28.15 29.7502L41.05 11.7502C34.45 4.7002 23.65 0.200195 10.15 0.200195C-10.85 0.200195 -23.75 14.3002 -23.75 30.5002C-23.75 64.4002 20.05 62.4502 20.05 78.2002ZM62.4998 60.6502L56.9498 44.3002C62.3498 41.0002 72.5498 37.7002 81.9998 37.7002C102.55 37.7002 110.05 48.0502 110.05 66.3502V107H90.5498V100.85C87.2498 105.5 80.1998 107.9 72.8498 107.9C60.6998 107.9 51.5498 100.25 51.5498 86.6002C51.5498 71.3002 62.4998 64.2502 75.8498 64.2502C81.8498 64.2502 86.9498 66.3502 89.0498 68.0002C89.4998 59.9002 85.7498 56.4502 79.7498 56.4502C71.7998 56.4502 66.6998 59.0002 62.4998 60.6502ZM80.4998 89.15C84.9998 89.15 87.6998 87.5 89.0498 85.7V81.5C86.9498 80 84.2498 79.25 80.4998 79.25C76.7498 79.25 74.0498 81.05 74.0498 84.35C74.0498 87.35 76.7498 89.15 80.4998 89.15ZM225.25 62.9003C225.25 44.4503 215.95 38.3003 203.95 38.3003C193.3 38.3003 186.85 42.5003 182.2 48.2003C179.8 42.8003 173.35 38.3003 163 38.3003C155.05 38.3003 147.85 41.0003 143.05 45.8003V39.5003H120.55V107H143.05V64.7003C145.75 60.8003 149.35 59.3003 153.7 59.3003C159.1 59.3003 161.65 63.0503 161.65 68.7503V107H184.15V65.1503C185.65 61.7003 189.7 59.3003 194.35 59.3003C200.65 59.3003 202.75 63.0503 202.75 68.9003V107H225.25V62.9003ZM269.35 87.0502C269.35 89.0002 267.55 90.0502 264.25 90.0502C257.5 90.0502 246.85 85.7002 242.65 81.6502L232 96.3502C235.15 101.15 248.5 108.8 262.75 108.8C280.75 108.8 291.85 99.6502 291.85 86.0002C291.85 62.0002 256.15 66.5002 256.15 59.4502C256.15 57.9502 258.1 56.4502 261.4 56.4502C268.75 56.4502 276.1 60.0502 280 62.7502L288.4 46.8502C283.9 42.9502 275.2 37.7002 260.05 37.7002C245.65 37.7002 233.65 45.2002 233.65 59.7502C233.65 84.3502 269.35 79.8502 269.35 87.0502ZM363.1 39.5H340.6V81.65C337.15 86 333.55 87.8 329.8 87.8C323.2 87.8 321.1 82.4 321.1 77.15V39.5H298.6V81.95C298.6 100.55 309.85 108.8 321.25 108.8C331.45 108.8 337.3 104.45 340.6 100.25V107H363.1V39.5ZM375.1 107H397.6V63.9502C400.9 60.6502 404.05 59.3002 408.1 59.3002C414.7 59.3002 419.2 62.9002 419.2 70.7002V107H441.7V66.8002C441.7 45.6502 429.85 38.3002 414.25 38.3002C407.2 38.3002 401.2 41.3002 397.6 44.7502V39.5002H375.1V107ZM443.95 115.7C443.95 104 453.25 97.1002 466.3 94.4002C465.7 93.2002 465.4 91.8502 465.4 90.6502C465.4 89.4502 465.7 87.9502 466.45 86.7502C455.8 82.5502 449.8 73.5502 449.8 63.6502C449.8 50.1502 460.9 37.7002 479.65 37.7002C486.4 37.7002 492.25 39.3502 496.9 42.2002L518.05 38.0002L518.8 56.0002L508.75 57.9502C509.2 59.9002 509.5 61.7002 509.5 63.6502C509.5 76.5502 499 87.9502 482.05 89.0002C481.9 89.6002 481.9 90.2002 481.9 90.6502C481.9 91.5502 482.05 92.3002 482.35 93.2002C500.8 93.8002 515.65 100.7 515.65 115.7C515.65 131.3 499.45 138.2 479.8 138.2C460.15 138.2 443.95 131.75 443.95 115.7ZM464.95 115.7C464.95 118.55 470.35 120.2 479.8 120.2C489.4 120.2 494.65 118.7 494.65 115.7C494.65 113 490.3 111.05 479.8 111.05C469.45 111.05 464.95 113 464.95 115.7ZM470.8 63.6502C470.8 67.8502 473.95 71.0002 479.65 71.0002C484.75 71.0002 488.5 68.4502 488.5 63.6502C488.5 59.4502 485.8 55.7002 479.65 55.7002C473.95 55.7002 470.8 59.6002 470.8 63.6502Z" fill="#F6F7F8"/>
</svg>
